<svg
        width="100"
        height="320"
        viewBox="0 0 97 100"
        xmlns="http://www.w3.org/2000/svg"
>
    <g fill="currentColor">
        <path d="M75,88.6c-3.2-3.6-6-7.8-8.4-12.3c0-0.1-0.1-0.2-0.1-0.2c-1.8-3.4-3.4-7-4.8-10.7c0-0.1-0.1-0.2-0.1-0.3   c-1.2-3-2.2-6.1-3.1-9.1c0-0.1,0-0.2-0.1-0.3c-0.9-3.1-1.7-6.1-2.4-9c0-0.1,0-0.2-0.1-0.3c-0.4-1.8-0.8-3.6-1.2-5.3   c0-0.1,0-0.2,0-0.2c-1-4.8-1.7-9-2.1-12.1c1.6-0.9,2.7-2.6,2.7-4.4c0-2.8-2.3-5-5-5s-5,2.3-5,5c0,1.9,1,3.6,2.7,4.4   c-1.3,8.8-5,29.9-13.6,46.7c0,0.1-0.1,0.1-0.1,0.2c-0.1,0.2-0.2,0.4-0.3,0.6c-2.6,4.9-5.4,9.1-8.5,12.4c-0.2,0.2-0.2,0.6,0,0.9   c0.1,0.2,0.3,0.3,0.6,0.3c0.1,0,0.2,0,0.3-0.1l13.7-6l9.8,11.1c0,0,0,0,0,0c0,0,0,0,0.1,0.1l0,0c0.1,0.1,0.2,0.1,0.4,0.1   c0,0,0,0,0,0c0,0,0,0,0,0c0,0,0.1,0,0.1,0c0.1,0,0.3-0.1,0.4-0.2c0,0,0,0,0,0l9.8-11.1l13.7,6c0.3,0.1,0.6,0,0.8-0.2   C75.3,89.2,75.2,88.8,75,88.6z M39.5,66.7l3.2,3.8l-6.7,4C37.3,72.1,38.5,69.4,39.5,66.7z M45.3,48.6l0.9,1.8l-2.1,2.5   C44.6,51.4,44.9,50,45.3,48.6z M46.7,42.8l2.6,3.8l-2.1,2.6l-1.4-2.6C46.1,45.2,46.4,44,46.7,42.8z M56.1,52.8l-2-2.5l0.9-1.7   C55.3,50,55.7,51.4,56.1,52.8z M50.8,57.8l3,2.5l-3,4.4V57.8z M51,56.1l2.4-4.5l3.5,4.3l-2.2,3.2L51,56.1z M50.8,53.5v-4.9l1.6,1.9   L50.8,53.5z M49.4,53.5l-1.6-3l1.6-1.9V53.5z M49.3,56.1L46,58.9l-2.1-3.5l3.1-3.8L49.3,56.1z M49.4,57.8v6.7l-2.7-4.4L49.4,57.8z    M49.2,66.7L44,69.9l-3.6-4.4l5.3-4.5L49.2,66.7z M49.4,68.1v8.3l-4.6-5.5L49.4,68.1z M50.8,68.1l4.6,2.8l-4.6,5.5V68.1z    M51.1,66.7l3.8-5.5l5.1,4.3l-3.6,4.4L51.1,66.7z M55.7,60.1l1.8-2.6c0.6,1.9,1.2,3.8,1.9,5.7L55.7,60.1z M54.5,46.6l-1.4,2.6   L51,46.6l2.6-3.8C53.9,44,54.2,45.3,54.5,46.6z M43,56.7l1.9,3.1l-4,3.4C41.7,61,42.4,58.9,43,56.7z M43.6,71.7l5.4,6.4L40.2,82   l-4.7-5.3L43.6,71.7z M56.6,71.7l8.2,5L60.1,82l-8.9-3.9L56.6,71.7z M57.5,70.6l3.2-3.8c1.1,2.7,2.2,5.3,3.5,7.8L57.5,70.6z    M53.2,40.9l-2.4,3.5v-15c0-0.1,0-0.2-0.1-0.3c0.1,0,0.2,0,0.4,0C51.6,32.2,52.3,36.3,53.2,40.9z M46.5,24.3c0-2,1.6-3.6,3.6-3.6   c2,0,3.6,1.6,3.6,3.6c0,1.5-0.9,2.8-2.3,3.4c-1.8,0.3-2.7,0-2.7,0c0,0,0,0,0,0c0,0,0,0,0,0C47.4,27.1,46.5,25.8,46.5,24.3z    M49.1,29.1c0.1,0,0.2,0,0.4,0c0,0.1,0,0.2,0,0.2v15l-2.4-3.5C48,36.1,48.7,32,49.1,29.1z M28.2,87.2c2.2-2.8,4.3-6,6.3-9.5   l4.3,4.9L28.2,87.2z M41.1,83.1l8.3-3.6v13.1L41.1,83.1z M50.8,92.5V79.4l8.3,3.7L50.8,92.5z M61.5,82.6l4.3-4.9   c1.9,3.4,3.9,6.6,6.2,9.5L61.5,82.6z">
        </path>

        <path d="M26,48.2l8.3-8.8c0.2-0.2,0.2-0.5,0.1-0.7c-0.1-0.3-0.4-0.4-0.6-0.4h-3.4l10.5-8.4c0.3-0.2,0.3-0.7,0.1-1   c-0.2-0.3-0.7-0.3-1-0.1l-12,9.6c-0.2,0.2-0.3,0.5-0.2,0.8c0.1,0.3,0.4,0.5,0.7,0.5h3.7L25,47.3c-0.3,0.3-0.2,0.7,0,1   c0.1,0.1,0.3,0.2,0.5,0.2C25.7,48.4,25.9,48.4,26,48.2z"></path>

        <path d="M59.1,23.7c0.2,0,0.4-0.1,0.5-0.2l7.8-8.3c0.2-0.2,0.2-0.5,0.1-0.7c-0.1-0.3-0.4-0.4-0.6-0.4h-3.1l9.7-7.8   c0.3-0.2,0.3-0.7,0.1-1c-0.2-0.3-0.7-0.3-1-0.1l-11.2,9c-0.2,0.2-0.3,0.5-0.2,0.8c0.1,0.3,0.4,0.5,0.7,0.5h3.4l-6.7,7.1   c-0.3,0.3-0.2,0.7,0,1C58.8,23.6,58.9,23.7,59.1,23.7z"></path>
        <path d="M58.3,30.2l10.3,8.2h-3.3c-0.3,0-0.5,0.2-0.6,0.4c-0.1,0.3-0.1,0.5,0.1,0.7l8.2,8.7c0.1,0.1,0.3,0.2,0.5,0.2   c0.2,0,0.3-0.1,0.5-0.2c0.3-0.3,0.3-0.7,0-1l-7.1-7.5h3.7c0.3,0,0.6-0.2,0.7-0.5c0.1-0.3,0-0.6-0.2-0.8l-11.8-9.4   c-0.3-0.2-0.7-0.2-1,0.1C58,29.5,58,29.9,58.3,30.2z"></path>
        <path d="M26.5,6.2l9.7,7.8h-3.1c-0.3,0-0.5,0.2-0.6,0.4c-0.1,0.3-0.1,0.5,0.1,0.7l7.8,8.3c0.1,0.1,0.3,0.2,0.5,0.2   c0.2,0,0.3-0.1,0.5-0.2c0.3-0.3,0.3-0.7,0-1l-6.7-7.1h3.4c0.3,0,0.6-0.2,0.7-0.5c0.1-0.3,0-0.6-0.2-0.8l-11.2-9   c-0.3-0.2-0.7-0.2-1,0.1C26.2,5.6,26.2,6,26.5,6.2z"></path>
    </g>
</svg>