<svg
    width="36"
    height="30"
    viewBox="100 0 201 150"
    xmlns="http://www.w3.org/2000/svg"
>
    <g transform="matrix(5.383191818100424,0,0,5.383191818100424,96.7167938893676,0.3278626750527138)" fill="currentColor">
        <path d="M7.8644 16.4915 c0.61 0 1.0336 -0.30508 1.0336 -1.0169 c0 -2.0847 -1.6102 -3.9831 -4.0847 -3.9831 c-2.3559 0 -4.2034 1.8644 -4.2034 4.3051 c0 2.5422 1.9322 4.288 4.3051 4.288 c1.5085 0 2.6949 -0.61017 3.4237 -1.5932 c0.10186 -0.13559 0.067963 -0.23729 -0.033568 -0.37288 l-0.32203 -0.42373 c-0.13559 -0.16933 -0.27119 -0.15254 -0.44085 -0.050847 c-0.5422 0.44068 -1.4405 0.81373 -2.4236 0.81373 c-1.3898 0 -2.3729 -0.84746 -2.5593 -1.9661 l5.3051 0 z M2.5592 15.050799999999999 c0.067797 -0.81356 0.83051 -1.8644 2.2203 -1.8644 c1.4068 0 2.1356 1.0678 2.1864 1.8644 l-4.4068 0 z M17.47442372881356 18.4746 c0.10169 0.15254 0.10136 0.27119 -0.01728 0.39 c-0.74576 0.71186 -1.7288 1.2541 -2.9153 1.2541 c-2.339 0 -4.339 -1.8812 -4.339 -4.288 c0 -2.4237 2 -4.339 4.339 -4.339 c1.1864 0 2.1525 0.49153 2.8475 1.1864 c0.11864 0.11881 0.11864 0.25441 0.016949 0.38983 l-0.64407 0.81356 c-0.10169 0.13559 -0.20339 0.15254 -0.40678 0.016949 c-0.42373 -0.42373 -1 -0.67797 -1.7627 -0.67797 c-1.61 0 -2.61 1.2542 -2.61 2.5932 c0 1.322 1 2.5932 2.6271 2.5932 c0.76271 0 1.3051 -0.28814 1.7966 -0.77966 c0.18644 -0.15254 0.30525 -0.10169 0.4239 0.033898 z M27.525438983050847 19.64424 c0.033732 0.18644 -0.016949 0.35593 -0.16949 0.35593 l-1.1017 0 c-0.44068 0 -0.66102 -0.28797 -0.66102 -0.6778 l0 -4.4068 c0 -1.1186 -0.77966 -1.7627 -1.8985 -1.7627 c-0.98305 0 -1.7797 0.45763 -2.4576 1.1186 l0 5.4578 c0 0.050847 -0.016784 0.10169 -0.033732 0.13559 c-0.033898 0.050847 -0.067797 0.084746 -0.10169 0.10169 c-0.050847 0.016949 -0.084746 0.033732 -0.13559 0.033732 l-1.322 0 c-0.15254 0 -0.25424 -0.11864 -0.25424 -0.27102 l0 -7.8476 l0 -0.050847 l0 -3.9492 c0 -0.57627 -0.084746 -0.83051 -0.13559 -1.0847 c-0.033732 -0.18661 0.017115 -0.3561 0.18661 -0.3561 l1.1525 0 c0.38983 0 0.64407 0.25424 0.64407 0.61017 l0 5.4576 c0.66102 -0.50864 1.5424 -1.0171 2.7119 -1.0171 c1.7288 0 3.4744 1.1019 3.4744 3.2205 l0 3.7627 c0.016949 0.47458 0.050847 0.83051 0.10169 1.1695 z M33.423579661016944 20.11864 c2.3729 0 4.339 -1.8812 4.339 -4.3049 c0 -2.4746 -1.9661 -4.322 -4.339 -4.322 s-4.339 1.8475 -4.339 4.322 c0 2.4237 1.9661 4.3049 4.339 4.3049 z M33.423579661016944 18.39 c-1.4576 0 -2.5424 -1.2034 -2.5424 -2.5593 c0 -1.4068 1.0847 -2.6102 2.5424 -2.6102 s2.5424 1.2034 2.5424 2.6102 c0 1.3559 -1.0847 2.5593 -2.5424 2.5593 z" />
    </g>
</svg>